<?xml version="1.0" encoding="utf-8"?>
<!-- Generator: Adobe Illustrator 24.2.1, SVG Export Plug-In . SVG Version: 6.00 Build 0)  -->
<svg version="1.1" id="Layer_1" xmlns="http://www.w3.org/2000/svg" xmlns:xlink="http://www.w3.org/1999/xlink" x="0px" y="0px"
	 viewBox="0 0 345 240" style="enable-background:new 0 0 345 240;" xml:space="preserve">
<style type="text/css">
	.st0{fill:#D7D6D6;stroke:#FFFFFF;stroke-miterlimit:10;}
	.st1{fill:#FFFFFF;stroke:#FFFFFF;stroke-width:0.5172;stroke-miterlimit:10;}
	.st2{fill:#D7D6D6;stroke:#FFFFFF;stroke-width:0.2494;stroke-miterlimit:10;}
	.st3{fill:#D7D6D6;stroke:#FFFFFF;stroke-width:0.399;stroke-miterlimit:10;}
	.st4{fill:#FFFFFF;stroke:#FFFFFF;stroke-miterlimit:10;}
</style>
<g>
	<path class="st0" d="M306.5,138h-75.7c-2.2,0-3.9-1.8-3.9-3.9V103c0-2.2,1.8-3.9,3.9-3.9h75.7c2.2,0,3.9,1.8,3.9,3.9v31
		C310.4,136.2,308.7,138,306.5,138z"/>
	<g>
		<g>
			<path class="st1" d="M266.2,116.1h-14v2.2h14h2.2C268.4,117.1,267.4,116.1,266.2,116.1z"/>
			<path class="st1" d="M260,108.8c1.4,2.5,3.9,4.1,7,4.1v-2.2c-3.2,0-5.8-2.6-5.8-5.8H261h-2h-0.2c0,3.2-2.6,5.8-5.8,5.8v2.2
				C256,112.9,258.6,111.2,260,108.8z"/>
		</g>
		<g>
			<path class="st1" d="M247.6,105v12.3l0,0v2.2c1.2,0,2.2-1,2.2-2.2V105H247.6z"/>
			<path class="st1" d="M244.7,109.5h-1.3c-0.5-2-2.3-3.4-4.4-3.4c-2.5,0-4.5,2.1-4.5,4.5c0,2.5,2.1,4.5,4.5,4.5
				c2.1,0,3.9-1.5,4.4-3.4h1.3v4.5l0,0v2.2c1.2,0,2.2-1,2.2-2.2V105h-2.2V109.5z M239,113.1c-1.4,0-2.5-1.1-2.5-2.5s1.1-2.5,2.5-2.5
				s2.5,1.1,2.5,2.5S240.4,113.1,239,113.1z"/>
		</g>
		<g>
			<path class="st1" d="M299.5,105v5.9l0,0v2.2c1.2,0,2.2-1,2.2-2.2V105H299.5z"/>
			<path class="st1" d="M287.9,114v2.2h11.6v1l0,0v2.2c1.2,0,2.2-1,2.2-2.2v-1V114h-2.2H287.9z"/>
			<path class="st1" d="M298.2,113.4c0-1.2-1-2.2-2.2-2.2h-0.3h-2.2h-2.4h-1v-0.9h1.3h0.9h2.3h0.5h1.4v-2.2h-6.3v-1h1.7h1.5h2.1h0.5
				h1.3V105H288v2.2v0.9v2.2v0.9v1.7v0.6h8.1H298.2z"/>
		</g>
		<g>
			<path class="st1" d="M283,105v12.3l0,0v2.2c1.2,0,2.2-1,2.2-2.2V105H283z"/>
			<path class="st1" d="M280.1,109.5h-1.7v2.2h1.7v4.5l0,0v2.2c1.2,0,2.2-1,2.2-2.2V105h-2.2V109.5z"/>
			<path class="st1" d="M276.4,114h-3.8v-2.3h0.8h0.7h1.9h0.4h1.2v-2.2h-5v-2.3h0.5h1.9h2.2h0.5h0.6V105h-7.7v2.1v2.3v2.2v2.4v2.1
				v0.1h8.2C278.5,114.9,277.6,114,276.4,114z"/>
		</g>
	</g>
	<path class="st2" d="M59.5,101c-10.7,0-19.4,8.7-19.4,19.4s8.7,19.4,19.4,19.4c10.7-0.1,19.4-8.7,19.4-19.4S70.3,101,59.5,101z
		 M60.7,103.5c3,0.2,5.9,1.2,8.4,2.9l-5.2,6.9c-0.2,0.2-0.5,0.3-0.7,0.3h-1.5c-0.5,0-0.9-0.4-0.9-0.9V103.5z M52.3,105
		c1.9-0.9,3.9-1.4,6-1.6v9.3c0,0.5-0.4,0.9-0.9,0.9h-4.3c-0.5,0-0.9-0.4-0.9-0.9L52.3,105L52.3,105z M50,106.4v6.3
		c0,0.5-0.4,0.9-0.9,0.9h-5.1C45.2,110.7,47.3,108.2,50,106.4z M43.1,116H60c0.3,0,0.6,0.2,0.8,0.5c0.2,0.3,0.1,0.7-0.1,0.9l-2.3,3
		c-0.2,0.2-0.5,0.3-0.7,0.3H42.5C42.5,119.2,42.7,117.6,43.1,116z M42.7,123.2h11.7c0.3,0,0.6,0.2,0.8,0.5c0.2,0.3,0.1,0.7-0.1,0.9
		l-6.7,8.8C45.4,130.7,43.3,127.1,42.7,123.2z M59.5,137.5c-3.3,0-6.4-0.9-9.2-2.7l8-10.5c0.2-0.2,0.4-0.3,0.7-0.3l0,0
		c0.3,0,0.5,0.1,0.7,0.3l8.8,10.6C65.9,136.6,62.8,137.5,59.5,137.5z M70.6,133.4l-7.4-8.8c-0.2-0.3-0.3-0.6-0.1-1
		c0.2-0.3,0.5-0.5,0.8-0.5h12.4C75.7,127.2,73.7,130.8,70.6,133.4z M76.6,120.8H62.9c-0.3,0-0.6-0.2-0.8-0.5
		c-0.2-0.3-0.1-0.7,0.1-0.9l1.9-2.6c0.4-0.5,1-0.8,1.6-0.8H76C76.4,117.6,76.6,119.2,76.6,120.8z M68.4,113.6
		c-0.3,0-0.6-0.2-0.8-0.5c-0.2-0.3-0.1-0.7,0.1-0.9l3.3-4.3c1.8,1.6,3.2,3.6,4.2,5.8H68.4z"/>
	<path class="st3" d="M120.2,133H97.7v-1.6h24.4v-11.2H91.9v5h24.4v1.6H91.9V138h28.3h5C125.1,135.2,122.9,133,120.2,133z"/>
	<path class="st3" d="M152.4,129.9h-15.8v-9.7h17.7v-1.1v-4.3v-7v-5.4l0,0H149l0,0h-17.7v5.4H149v7h-17.7v3.8v1.7v9.7v5.4h5.4h15.8
		h5.4C157.7,132.3,155.4,129.9,152.4,129.9z"/>
	<path class="st3" d="M159.2,132.6L159.2,132.6v5.4c3,0,5.4-2.4,5.4-5.4v-30.1h-5.4V132.6z"/>
	<path class="st3" d="M209.2,102.4h-5.4v30.2l0,0v5.4c3,0,5.4-2.4,5.4-5.4V122h4v-5.4h-4V102.4z"/>
	<path class="st3" d="M109.7,118.2h5.4c0-3-2.4-5.4-5.4-5.4H95.5v-5.1h17.7v-5.4H95.5l0,0h-5.4l0,0v5.4v5v5.4h5.4L109.7,118.2
		L109.7,118.2z"/>
	<path class="st3" d="M122.1,102.4h-5.4v11.3l0,0v5.4c3,0,5.4-2.4,5.4-5.4l0,0v-1.6h3.5v-5.4h-3.5V102.4z"/>
	<path class="st3" d="M185.5,102.4c-8.5,0-15.3,6.9-15.3,15.3c0,8.5,6.9,15.3,15.3,15.3c8.5,0,15.3-6.9,15.3-15.3
		C200.8,109.2,193.9,102.4,185.5,102.4z M185.5,127.8c-5.5,0-10-4.5-10-10c0-5.5,4.5-10,10-10c5.5,0,10,4.5,10,10
		C195.5,123.3,191,127.8,185.5,127.8z"/>
	<g>
		<g>
			<g>
				<g>
					<path class="st4" d="M246,130.2c-0.2-0.2-0.4-0.2-0.6-0.1c-0.2,0.1-0.3,0.3-0.3,0.6h-0.2v-6c0-0.5-0.2-0.7-0.6-0.7v-0.2
						l1.8-0.3v2.8c0.4-0.3,0.9-0.6,1.4-0.6c0.6,0,1.1,0.2,1.5,0.6c0.4,0.4,0.6,1,0.6,1.8c0,0.7-0.2,1.4-0.6,1.8s-0.9,0.7-1.5,0.7
						C246.8,130.7,246.4,130.6,246,130.2z M246.4,126.3c-0.2,0.1-0.3,0.2-0.5,0.3v2.5c0,0.3,0.1,0.6,0.3,0.9s0.5,0.3,0.7,0.3
						c0.4,0,0.7-0.2,0.9-0.6c0.2-0.4,0.3-0.9,0.3-1.5c0-0.6-0.1-1.1-0.3-1.5c-0.2-0.4-0.5-0.6-0.9-0.6
						C246.8,126.2,246.6,126.2,246.4,126.3z"/>
					<path class="st4" d="M249.6,125.9h2.3v0.2c-0.3,0-0.4,0.3-0.2,1l0.9,2.1l0.9-2.1c0.3-0.6,0.2-0.9-0.3-0.9v-0.2h1.6v0.2
						c-0.5,0-0.8,0.3-1.1,1l-2.1,4.8c-0.2,0.4-0.3,0.7-0.6,0.8c-0.2,0.2-0.4,0.3-0.7,0.3c-0.2,0.1-0.5,0-0.6-0.1
						c-0.2-0.1-0.3-0.2-0.3-0.3c-0.1-0.1-0.1-0.3,0-0.4s0.1-0.2,0.2-0.2c0.2-0.1,0.3,0,0.5,0.2c0.1,0.2,0.2,0.2,0.3,0.3
						s0.3,0.1,0.4,0c0.2-0.1,0.3-0.3,0.5-0.6l0.5-1.1l-1.5-3.5c-0.3-0.6-0.6-1-1-1L249.6,125.9L249.6,125.9z"/>
				</g>
			</g>
		</g>
		<g>
			<path class="st4" d="M282.8,123.2c-0.2,0-0.4,0.2-0.4,0.4v0.6h-1.6c-0.2,0-0.4,0.2-0.4,0.4c0,0.2,0.2,0.4,0.4,0.4h1.6v0.9h-1.6
				c-0.2,0-0.4,0.2-0.4,0.4c0,0.2,0.2,0.4,0.4,0.4h1.6v2.5c0,0.2,0.2,0.4,0.4,0.4s0.4-0.2,0.4-0.4v-5.5
				C283.2,123.4,283.1,123.2,282.8,123.2z"/>
			<path class="st4" d="M266,125c0.2,0,0.4-0.2,0.4-0.4s-0.2-0.4-0.4-0.4h-1.5v-0.6c0-0.2-0.2-0.4-0.4-0.4s-0.4,0.2-0.4,0.4v5.1
				c0,0.2,0.2,0.4,0.4,0.4c0.2,0,0.4-0.2,0.4-0.4v-2.1h1.5c0.2,0,0.4-0.2,0.4-0.4c0-0.2-0.2-0.4-0.4-0.4h-1.5V125
				C264.5,125,266,125,266,125z"/>
			<path class="st4" d="M268.6,128.3c0.1,0,0.2-0.1,0.3-0.1l2.1-1.9l2,1.9c0.2,0.2,0.5,0.2,0.6,0c0.2-0.2,0.2-0.5,0-0.6l-2.3-2.1
				c-0.2-0.2-0.4-0.2-0.6,0l-2.4,2.1c-0.2,0.2-0.2,0.4-0.1,0.6C268.4,128.3,268.5,128.3,268.6,128.3z"/>
			<path class="st4" d="M275.2,130c0-0.2-0.2-0.4-0.4-0.4h-3.3v-1c0-0.2-0.2-0.4-0.4-0.4c-0.2,0-0.4,0.2-0.4,0.4v1h-3.4
				c-0.2,0-0.4,0.2-0.4,0.4s0.2,0.4,0.4,0.4h7.5C275,130.4,275.2,130.3,275.2,130z"/>
			<path class="st4" d="M275.9,132.3h-7v-1c0-0.2-0.2-0.4-0.4-0.4s-0.4,0.2-0.4,0.4v1.4c0,0.2,0.2,0.4,0.4,0.4h7.5
				c0.2,0,0.4-0.2,0.4-0.4C276.3,132.4,276.1,132.3,275.9,132.3z"/>
			<path class="st4" d="M265,129.9h-6.7c-0.2,0-0.4,0.2-0.4,0.4s0.2,0.4,0.4,0.4h6.3v2.1c0,0.2,0.2,0.4,0.4,0.4
				c0.2,0,0.4-0.2,0.4-0.4v-2.6C265.4,130,265.2,129.9,265,129.9z"/>
			<path class="st4" d="M279.5,128.2v-2.3c0-0.2-0.2-0.4-0.4-0.4h-2.8c-0.2,0-0.4,0.2-0.4,0.4v2.3c0,0.2,0.2,0.4,0.4,0.4h2.7
				C279.3,128.6,279.5,128.4,279.5,128.2z M278.7,127.8h-1.9v-1.4h1.9V127.8z"/>
			<path class="st4" d="M292.6,125.9H291v-0.6c0-0.2-0.2-0.4-0.4-0.4c-0.2,0-0.4,0.2-0.4,0.4v7.6c0,0.2,0.2,0.4,0.4,0.4
				c0.2,0,0.4-0.2,0.4-0.4v-6.2h1.6c0.2,0,0.4-0.2,0.4-0.4S292.8,125.9,292.6,125.9z"/>
			<path class="st4" d="M288,125.9h-3.1c-0.2,0-0.4,0.2-0.4,0.4s0.2,0.4,0.4,0.4h2.7v2.7c0,0.2,0.2,0.4,0.4,0.4
				c0.2,0,0.4-0.2,0.4-0.4v-3.1C288.4,126.1,288.2,125.9,288,125.9z"/>
			<path class="st4" d="M260.5,129c1,0,1.8-0.8,1.8-1.8s-0.8-1.8-1.8-1.8c-1,0-1.8,0.8-1.8,1.8S259.5,129,260.5,129z M260.5,126.2
				c0.6,0,1,0.4,1,0.9c0,0.5-0.5,0.9-1,0.9s-1-0.4-1-0.9C259.5,126.6,260,126.2,260.5,126.2z"/>
			<path class="st4" d="M281.1,129.9c-1,0-1.9,0.8-1.9,1.8s0.9,1.8,1.9,1.8s1.9-0.8,1.9-1.8C282.9,130.6,282.1,129.9,281.1,129.9z
				 M281.1,132.6c-0.6,0-1-0.4-1-0.9s0.5-0.9,1-0.9s1,0.4,1,0.9S281.6,132.6,281.1,132.6z"/>
		</g>
	</g>
</g>
</svg>
