<svg id="Layer_1" data-name="Layer 1" xmlns="http://www.w3.org/2000/svg" viewBox="0 0 444.22 67.22"><defs><style>.cls-1,.cls-3,.cls-4{fill:#d3d3d3;}.cls-2,.cls-5{fill:#fff;}.cls-2{stroke:#fff;stroke-width:0.52px;}.cls-2,.cls-3,.cls-4{stroke-miterlimit:10;}.cls-3,.cls-4{stroke:#d3d3d3;}.cls-3{stroke-width:0.25px;}.cls-4{stroke-width:0.4px;}</style></defs><path class="cls-1" d="M313.8,0H437.3a6.91,6.91,0,0,1,6.9,6.9V57a6.91,6.91,0,0,1-6.9,6.9H313.8a6.91,6.91,0,0,1-6.9-6.9V6.9A6.79,6.79,0,0,1,313.8,0Z" transform="translate(0.02)"/><path class="cls-2" d="M371.5,28.1H348.6v3.6h26.5A3.59,3.59,0,0,0,371.5,28.1Z" transform="translate(0.02)"/><path class="cls-2" d="M361.3,16.1a13.16,13.16,0,0,0,11.4,6.7V19.2a9.56,9.56,0,0,1-9.5-9.5h-3.8a9.5,9.5,0,0,1-9.5,9.5v3.5A12.56,12.56,0,0,0,361.3,16.1Z" transform="translate(0.02)"/><path class="cls-2" d="M341.1,9.8V29.9h0v3.6a3.59,3.59,0,0,0,3.6-3.6V9.8Z" transform="translate(0.02)"/><path class="cls-2" d="M336.2,17.1h-2.1a7.42,7.42,0,1,0,0,3.6h2.1v7.4h0v3.6a3.59,3.59,0,0,0,3.6-3.6V9.8h-3.6Zm-9.4,6a4.1,4.1,0,1,1,4.1-4.1h0a4.05,4.05,0,0,1-4.1,4.1Z" transform="translate(0.02)"/><path class="cls-2" d="M426.2,9.8v9.8h0v3.6a3.59,3.59,0,0,0,3.6-3.6V9.8Z" transform="translate(0.02)"/><path class="cls-2" d="M407.2,24.6v3.6h19v1.7h0v3.6a3.59,3.59,0,0,0,3.6-3.6V24.6Z" transform="translate(0.02)"/><path class="cls-2" d="M424.1,23.6a3.56,3.56,0,0,0-3.5-3.6h-9.7V18.5h10.3V14.9H410.9V13.4h11.6V9.8H407.3V23.6Z" transform="translate(0.02)"/><path class="cls-2" d="M399.1,9.8V29.9h0v3.6a3.59,3.59,0,0,0,3.6-3.6V9.8Z" transform="translate(0.02)"/><path class="cls-2" d="M394.4,17.1h-2.7v3.6h2.7v7.4h0v3.6a3.59,3.59,0,0,0,3.6-3.6V9.8h-3.6Z" transform="translate(0.02)"/><path class="cls-2" d="M388.3,24.6H382V20.7h8.2V17.1H382V13.3h9.1V9.8H378.4V28.2h13.5A3.59,3.59,0,0,0,388.3,24.6Z" transform="translate(0.02)"/><path class="cls-3" d="M32.1,3.3A31.9,31.9,0,1,0,64,35.3h0A32.07,32.07,0,0,0,32.1,3.3Zm2,4a28.61,28.61,0,0,1,13.8,4.8L39.2,23.4A1.43,1.43,0,0,1,38,24H35.5a1.45,1.45,0,0,1-1.4-1.5ZM20.2,9.9a26.44,26.44,0,0,1,10-2.6V22.5A1.54,1.54,0,0,1,28.7,24h-7a1.54,1.54,0,0,1-1.5-1.5Zm-3.9,2.2V22.5A1.54,1.54,0,0,1,14.8,24H6.4A27.91,27.91,0,0,1,16.3,12.1ZM5,27.9H32.8a1.54,1.54,0,0,1,1.5,1.5,1.61,1.61,0,0,1-.3.9l-3.8,5a1.43,1.43,0,0,1-1.2.6H4.1A27,27,0,0,1,5,27.9ZM4.4,39.7H23.7a1.34,1.34,0,0,1,1.3.8,1.58,1.58,0,0,1-.1,1.5l-11,14.4A27.26,27.26,0,0,1,4.4,39.7ZM32.1,63.2A28,28,0,0,1,17,58.8L30.2,41.5a1.38,1.38,0,0,1,1.1-.6h0a1.61,1.61,0,0,1,1.1.5L47,58.9A27.82,27.82,0,0,1,32.1,63.2Zm18.1-6.6L38.1,42.1a1.56,1.56,0,0,1,.2-2.1,1.61,1.61,0,0,1,.9-.3H59.7A28,28,0,0,1,50.2,56.6Zm9.9-20.8H37.6a1.54,1.54,0,0,1-1.5-1.5,1.61,1.61,0,0,1,.3-.9l3.2-4.2a3.37,3.37,0,0,1,2.7-1.3H59.1A30,30,0,0,1,60.1,35.8ZM46.6,24a1.34,1.34,0,0,1-1.3-.8,1.21,1.21,0,0,1,.2-1.5l5.4-7.1a28.06,28.06,0,0,1,6.8,9.5H46.6Z" transform="translate(0.02)"/><path class="cls-4" d="M131.7,55.9H94.8V53.3h40V34.8H85.1v8.1h40.1v2.6H85.1V64h54.7A8.07,8.07,0,0,0,131.7,55.9Z" transform="translate(0.02)"/><path class="cls-4" d="M184.6,50.8h-26v-16h29.2V5.6H149.9v8.8H179V26H149.9V59.6h43.6a9,9,0,0,0-8.9-8.8Z" transform="translate(0.02)"/><path class="cls-4" d="M195.9,55.2h0V64a8.75,8.75,0,0,0,8.8-8.8h0V5.6h-8.8Z" transform="translate(0.02)"/><path class="cls-4" d="M278.1,5.6h-8.8V55.1h0V64a8.75,8.75,0,0,0,8.8-8.8h0V37.8h6.6V29h-6.6Z" transform="translate(0.02)"/><path class="cls-4" d="M114.4,31.6h8.8a8.75,8.75,0,0,0-8.8-8.8H91V14.5h29.2V5.6h-38v26Z" transform="translate(0.02)"/><path class="cls-4" d="M134.8,5.6H126V24.2h0V33a8.75,8.75,0,0,0,8.8-8.8h0V21.6h5.9V12.8h-5.9Z" transform="translate(0.02)"/><path class="cls-4" d="M238.9,5.5a25.2,25.2,0,1,0,25.2,25.2h0A25.22,25.22,0,0,0,238.9,5.5Zm0,41.8a16.5,16.5,0,1,1,16.5-16.5h0A16.58,16.58,0,0,1,238.9,47.3Z" transform="translate(0.02)"/><path class="cls-5" d="M338.3,51.3a1,1,0,0,0-1-.2,1.33,1.33,0,0,0-.6,1h-.3v-10c0-.9-.4-1.3-1.1-1.1v-.3l2.9-.5V45a3.1,3.1,0,0,1,2.2-.9,3.47,3.47,0,0,1,2.5,1,3.76,3.76,0,0,1,.9,2.9,4.06,4.06,0,0,1-1,3,3.25,3.25,0,0,1-2.5,1.1A3.41,3.41,0,0,1,338.3,51.3Zm.7-6.4c-.3.1-.5.4-.7.6v4.1a1.92,1.92,0,0,0,1.6,2,1.54,1.54,0,0,0,1.5-1,5.84,5.84,0,0,0,.1-5,1.65,1.65,0,0,0-1.5-.9,1.3,1.3,0,0,0-1,.2Z" transform="translate(0.02)"/><path class="cls-5" d="M344.3,44.2h3.8v.3c-.6,0-.7.5-.2,1.6l1.4,3.5,1.5-3.5c.4-1,.3-1.5-.5-1.5v-.3h2.6v.3c-.7,0-1.3.6-1.8,1.6L347.7,54a4.19,4.19,0,0,1-.9,1.4,2.22,2.22,0,0,1-1.1.5,1.73,1.73,0,0,1-1-.1,1.21,1.21,0,0,1-.5-.5.85.85,0,0,1,0-.7c.1-.2.2-.4.4-.4a.67.67,0,0,1,.8.3,1.21,1.21,0,0,0,.5.5.64.64,0,0,0,.6,0,1.59,1.59,0,0,0,.8-1l.8-1.9-2.4-5.8c-.4-1.1-1-1.6-1.6-1.6Z" transform="translate(0.02)"/><path class="cls-5" d="M398.9,39.7a.68.68,0,0,0-.7.7h0v.9h-2.6a.7.7,0,0,0,0,1.4h2.6v1.4h-2.6a.68.68,0,0,0-.7.7h0a.68.68,0,0,0,.7.7h2.6v4a.68.68,0,0,0,.7.7h0a.68.68,0,0,0,.7-.7h0V40.4A.84.84,0,0,0,398.9,39.7Z" transform="translate(0.02)"/><path class="cls-5" d="M371.3,42.7a.7.7,0,0,0,0-1.4h-2.5v-.9a.68.68,0,0,0-.7-.7h0a.68.68,0,0,0-.7.7h0V49a.68.68,0,0,0,.7.7h0a.68.68,0,0,0,.7-.7h0V45.5h2.5a.7.7,0,0,0,0-1.4h-2.5V42.7Z" transform="translate(0.02)"/><path class="cls-5" d="M375.6,48.2c.2,0,.3-.1.5-.2l3.4-3.1,3.3,3.1a.67.67,0,0,0,1,0h0a.67.67,0,0,0,0-1h0L380,43.5a.75.75,0,0,0-.9,0l-4,3.4a.76.76,0,0,0-.1,1h0A.6.6,0,0,0,375.6,48.2Z" transform="translate(0.02)"/><path class="cls-5" d="M386.3,51a.68.68,0,0,0-.7-.7h-5.4V48.6a.7.7,0,0,0-1.4,0v1.7h-5.5a.7.7,0,1,0,0,1.4h12.3A.68.68,0,0,0,386.3,51Z" transform="translate(0.02)"/><path class="cls-5" d="M387.4,54.7H375.8V53a.7.7,0,1,0-1.4,0v2.3a.68.68,0,0,0,.7.7h12.3a.68.68,0,0,0,.7-.7h0a.67.67,0,0,0-.7-.6Z" transform="translate(0.02)"/><path class="cls-5" d="M369.6,50.7h-11a.7.7,0,0,0,0,1.4h10.3v3.5a.7.7,0,1,0,1.4,0h0V51.4A.84.84,0,0,0,369.6,50.7Z" transform="translate(0.02)"/><path class="cls-5" d="M393.4,47.9V44.2a.68.68,0,0,0-.7-.7h-4.5a.68.68,0,0,0-.7.7h0v3.7a.68.68,0,0,0,.7.7h4.5a.68.68,0,0,0,.7-.7Zm-1.3-.6H389V45h3.1Z" transform="translate(0.02)"/><path class="cls-5" d="M414.9,44.1h-2.6v-1a.71.71,0,0,0-1.4-.2V55.5a.71.71,0,0,0,1.4.2V45.5h2.6a.68.68,0,0,0,.7-.7h0a.75.75,0,0,0-.7-.7Z" transform="translate(0.02)"/><path class="cls-5" d="M407.3,44.2h-5a.7.7,0,1,0,0,1.4h4.4V50a.68.68,0,0,0,.7.7h0a.68.68,0,0,0,.7-.7h0V44.9a.85.85,0,0,0-.8-.7Z" transform="translate(0.02)"/><path class="cls-5" d="M362.2,49.2a2.84,2.84,0,0,0,2.8-3,2.9,2.9,0,0,0-3-2.8,2.82,2.82,0,0,0-2.8,2.9A3.06,3.06,0,0,0,362.2,49.2Zm0-4.4a1.56,1.56,0,0,1-.3,3.1,1.52,1.52,0,0,1-1.4-1.5,1.6,1.6,0,0,1,1.7-1.6Z" transform="translate(0.02)"/><path class="cls-5" d="M395.9,50.7a2.91,2.91,0,1,0,3.1,2.9A2.91,2.91,0,0,0,395.9,50.7Zm0,4.4a1.56,1.56,0,1,1,.3-3.1,1.52,1.52,0,0,1,1.4,1.5A1.55,1.55,0,0,1,395.9,55.1Z" transform="translate(0.02)"/></svg>